<svg width="1007" height="222" viewBox="0 0 1007 222" fill="none" xmlns="http://www.w3.org/2000/svg">
  <g clip-path="url(#clip0_4317_6533)">
  <rect x="0.898438" y="-4" width="1006.14" height="225.419" rx="15" fill="#161F27"/>
  <ellipse style="filter: blur(75px);" cx="943.76" cy="159.157" rx="62.4635" ry="61.9937" fill="#F50E6F"/>
  <ellipse style="filter: blur(130px);" cx="104.146" cy="155.551" rx="70" ry="70" fill="#F50E6F"/>
  <g filter="url(#filter0_b_4317_6533)">
  <rect x="0.898438" y="-4" width="1006.14" height="225.419" rx="10" fill="#161F27" fill-opacity="0.01"/>
  </g>
  <path d="M731.138 145.074L765.992 134.671L767.511 144.952L731.138 145.074Z" fill="#C81069"/>
  <path d="M729.198 71.2134L770.152 80.0742L764.559 93.6929L729.198 71.2134Z" fill="#C81069"/>
  <path d="M780.758 17.2875L807.546 43.0687L798.601 49.9049L780.758 17.2875Z" fill="#C81069"/>
  <path opacity="0.01" fill-rule="evenodd" clip-rule="evenodd" d="M713.896 174.209C716.624 174.517 718.923 176.279 719.928 178.833L722.93 186.459C723.935 189.013 723.493 191.97 721.771 194.217L716.628 200.926C714.906 203.173 712.165 204.367 709.438 204.06L701.294 203.143C698.566 202.836 696.267 201.073 695.262 198.519L692.26 190.893C691.255 188.339 691.697 185.382 693.419 183.135L698.562 176.426C700.284 174.179 703.025 172.985 705.752 173.292L713.896 174.209ZM718.559 188.784L715.275 180.441C714.988 179.712 714.331 179.208 713.552 179.12L704.642 178.117C703.863 178.029 703.08 178.37 702.588 179.012L696.962 186.351C696.47 186.993 696.344 187.838 696.631 188.568L699.915 196.911C700.202 197.64 700.859 198.144 701.638 198.232L710.548 199.235C711.327 199.323 712.11 198.982 712.602 198.34L718.228 191.001C718.72 190.359 718.846 189.514 718.559 188.784ZM717.33 179.546C716.755 178.086 715.441 177.079 713.883 176.904L704.973 175.9C703.415 175.725 701.849 176.407 700.865 177.691L695.239 185.03C694.255 186.314 694.002 188.004 694.577 189.463L697.86 197.806C698.435 199.266 699.749 200.273 701.307 200.448L710.217 201.452C711.775 201.627 713.341 200.945 714.325 199.661L719.951 192.322C720.935 191.038 721.188 189.348 720.613 187.889L717.33 179.546ZM713.028 187.843L706.988 183.213L702.162 189.509L708.201 194.139L713.028 187.843Z" fill="white"/>
  <path opacity="0.01" fill-rule="evenodd" clip-rule="evenodd" d="M699.138 82.7194C701.221 82.9541 702.977 84.3004 703.745 86.2512L706.038 92.0767C706.806 94.0275 706.468 96.2864 705.153 98.0025L701.225 103.127C699.909 104.843 697.816 105.756 695.732 105.521L689.511 104.82C687.428 104.586 685.672 103.239 684.904 101.289L682.611 95.4632C681.843 93.5124 682.18 91.2535 683.496 89.5374L687.424 84.4127C688.74 82.6966 690.833 81.784 692.917 82.0186L699.138 82.7194ZM702.699 93.8525L700.191 87.4798C699.972 86.9224 699.47 86.5377 698.875 86.4707L692.069 85.7041C691.474 85.637 690.876 85.8978 690.5 86.3881L686.202 91.9942C685.827 92.4846 685.73 93.13 685.95 93.6873L688.458 100.06C688.677 100.617 689.179 101.002 689.774 101.069L696.58 101.836C697.175 101.903 697.773 101.642 698.149 101.152L702.446 95.5456C702.822 95.0553 702.919 94.4099 702.699 93.8525ZM701.76 86.7957C701.322 85.681 700.318 84.9117 699.128 84.7776L692.322 84.011C691.131 83.8769 689.935 84.3984 689.183 85.379L684.886 90.9852C684.134 91.9658 683.942 93.2566 684.38 94.3713L686.889 100.744C687.327 101.859 688.331 102.628 689.521 102.762L696.327 103.529C697.517 103.663 698.714 103.142 699.466 102.161L703.763 96.5547C704.515 95.5741 704.707 94.2833 704.269 93.1685L701.76 86.7957ZM698.474 93.1333L693.861 89.5972L690.175 94.4065L694.788 97.9426L698.474 93.1333Z" fill="white"/>
  <path opacity="0.01" fill-rule="evenodd" clip-rule="evenodd" d="M609.622 -6.18193C612.179 -9.22518 616.148 -10.5855 620.034 -9.7506L631.639 -7.25727C635.525 -6.42232 638.738 -3.5189 640.067 0.359303L644.036 11.9404C645.365 15.8186 644.609 20.0824 642.052 23.1257L634.417 32.2135C631.86 35.2567 627.891 36.6171 624.004 35.7821L612.4 33.2888C608.513 32.4539 605.301 29.5504 603.971 25.6722L600.002 14.0911C598.673 10.2129 599.429 5.94911 601.986 2.90586L609.622 -6.18193ZM630.939 -0.121628L618.244 -2.84922C617.133 -3.08778 615.999 -2.6991 615.269 -1.8296L606.916 8.11202C606.185 8.98152 605.969 10.1997 606.349 11.3078L610.691 23.977C611.071 25.0851 611.989 25.9146 613.099 26.1532L625.795 28.8808C626.905 29.1193 628.039 28.7306 628.769 27.8611L637.122 17.9195C637.853 17.05 638.069 15.8318 637.689 14.7237L633.347 2.05453C632.967 0.946478 632.049 0.116929 630.939 -0.121628ZM618.811 -6.045C616.59 -6.52212 614.322 -5.74476 612.861 -4.00576L604.508 5.93586C603.047 7.67486 602.615 10.1113 603.374 12.3274L607.716 24.9966C608.476 27.2127 610.312 28.8718 612.532 29.349L625.228 32.0765C627.448 32.5537 629.716 31.7763 631.177 30.0373L639.53 20.0957C640.992 18.3567 641.424 15.9202 640.664 13.7041L636.322 1.03491C635.562 -1.1812 633.727 -2.8403 631.506 -3.31741L618.811 -6.045ZM625.369 5.79515L614.944 9.36813L618.669 20.2365L629.094 16.6635L625.369 5.79515Z" fill="white"/>
  <path opacity="0.01" fill-rule="evenodd" clip-rule="evenodd" d="M475.155 104.519C478.035 101.091 482.507 99.5583 486.885 100.499L499.958 103.308C504.336 104.248 507.955 107.519 509.453 111.888L513.925 124.935C515.422 129.304 514.57 134.107 511.689 137.536L503.088 147.774C500.207 151.202 495.736 152.734 491.358 151.794L478.284 148.985C473.906 148.044 470.287 144.774 468.789 140.405L464.318 127.358C462.82 122.989 463.672 118.185 466.553 114.757L475.155 104.519ZM499.17 111.346L484.868 108.274C483.617 108.005 482.34 108.443 481.517 109.422L472.107 120.622C471.284 121.602 471.04 122.974 471.468 124.222L476.36 138.495C476.788 139.743 477.822 140.678 479.073 140.946L493.374 144.019C494.625 144.288 495.903 143.85 496.726 142.87L506.136 131.671C506.959 130.691 507.202 129.319 506.774 128.07L501.883 113.798C501.455 112.55 500.421 111.615 499.17 111.346ZM485.507 104.673C483.005 104.136 480.45 105.012 478.804 106.971L469.394 118.17C467.748 120.13 467.261 122.874 468.117 125.371L473.008 139.643C473.864 142.14 475.932 144.009 478.434 144.547L492.736 147.619C495.237 148.157 497.792 147.281 499.438 145.322L508.849 134.122C510.495 132.163 510.981 129.418 510.126 126.922L505.234 112.649C504.378 110.153 502.31 108.284 499.808 107.746L485.507 104.673ZM492.895 118.012L481.151 122.037L485.347 134.281L497.091 130.256L492.895 118.012Z" fill="white"/>
  <path opacity="0.01" fill-rule="evenodd" clip-rule="evenodd" d="M365.526 181.227C369.364 176.659 375.322 174.618 381.155 175.871L398.574 179.613C404.407 180.867 409.229 185.225 411.224 191.046L417.182 208.429C419.178 214.25 418.042 220.65 414.204 225.218L402.743 238.859C398.905 243.427 392.948 245.469 387.114 244.216L369.696 240.473C363.862 239.22 359.04 234.862 357.045 229.041L351.087 211.657C349.092 205.836 350.227 199.436 354.065 194.868L365.526 181.227ZM397.523 190.324L378.468 186.23C376.801 185.872 375.099 186.455 374.002 187.76L361.465 202.683C360.368 203.988 360.044 205.816 360.614 207.48L367.131 226.496C367.701 228.159 369.079 229.404 370.746 229.762L389.801 233.857C391.468 234.215 393.17 233.631 394.267 232.326L406.805 217.404C407.901 216.099 408.226 214.27 407.656 212.607L401.138 193.59C400.568 191.927 399.19 190.682 397.523 190.324ZM379.319 181.433C375.985 180.717 372.581 181.884 370.388 184.494L357.85 199.416C355.657 202.026 355.008 205.684 356.148 209.01L362.666 228.026C363.806 231.353 366.562 233.843 369.895 234.559L388.951 238.653C392.284 239.37 395.688 238.203 397.881 235.593L410.419 220.67C412.612 218.06 413.261 214.403 412.121 211.076L405.603 192.06C404.463 188.733 401.707 186.243 398.374 185.527L379.319 181.433ZM389.163 199.205L373.515 204.568L379.106 220.881L394.754 215.518L389.163 199.205Z" fill="white"/>
  <path opacity="0.01" fill-rule="evenodd" clip-rule="evenodd" d="M717.019 7.2968C718.865 5.09927 721.732 4.11695 724.538 4.71987L732.918 6.5203C735.724 7.12321 738.044 9.21976 739.004 12.0202L741.87 20.3829C742.83 23.1833 742.283 26.2622 740.437 28.4597L734.923 35.022C733.077 37.2195 730.211 38.2018 727.405 37.5989L719.025 35.7985C716.219 35.1956 713.899 33.099 712.939 30.2986L710.073 21.9359C709.113 19.1355 709.659 16.0566 711.505 13.8591L717.019 7.2968ZM732.412 11.6729L723.245 9.70333C722.443 9.53107 721.624 9.81174 721.097 10.4396L715.065 17.6184C714.538 18.2463 714.382 19.126 714.656 19.9261L717.791 29.0745C718.066 29.8746 718.729 30.4736 719.53 30.6459L728.697 32.6155C729.499 32.7877 730.318 32.5071 730.846 31.8792L736.877 24.7004C737.405 24.0725 737.561 23.1928 737.287 22.3927L734.151 13.2443C733.877 12.4442 733.214 11.8452 732.412 11.6729ZM723.654 7.39567C722.051 7.05115 720.413 7.61247 719.358 8.8682L713.326 16.047C712.271 17.3027 711.959 19.0621 712.508 20.6623L715.643 29.8107C716.192 31.411 717.517 32.609 719.121 32.9535L728.288 34.9231C729.892 35.2676 731.529 34.7063 732.584 33.4506L738.616 26.2718C739.671 25.0161 739.983 23.2567 739.435 21.6564L736.299 12.5081C735.751 10.9078 734.425 9.70978 732.822 9.36525L723.654 7.39567ZM728.39 15.9454L720.862 18.5254L723.552 26.3734L731.08 23.7934L728.39 15.9454Z" fill="white"/>
  <g clip-path="url(#clip1_4317_6533)">
  <path fill-rule="evenodd" clip-rule="evenodd" d="M935.872 179.894C932.747 206.04 929.72 226.091 911.664 232.667C912.82 240.663 916.385 244.621 921.729 245.597C924.56 246.106 927.479 245.746 930.104 244.564C943.116 238.698 955.672 221.061 964.402 198.299C957.605 190.23 945.567 182.496 935.872 179.894Z" fill="#C81069"/>
  <mask id="mask0_4317_6533" style="mask-type:luminance" maskUnits="userSpaceOnUse" x="911" y="179" width="54" height="67">
  <path d="M935.872 179.894C932.747 206.04 929.72 226.091 911.664 232.667C912.82 240.663 916.385 244.621 921.729 245.597C924.56 246.106 927.479 245.746 930.104 244.564C943.116 238.698 955.672 221.061 964.402 198.299C957.605 190.23 945.567 182.496 935.872 179.894Z" fill="white"/>
  </mask>
  <g mask="url(#mask0_4317_6533)">
  <path fill-rule="evenodd" clip-rule="evenodd" d="M927.96 198.299C927.96 198.299 957.163 192.131 961.725 205.687C963.857 212.023 972.098 202.159 972.098 202.159L961.782 177.311L933.413 179.894L927.062 188.233L927.96 198.299Z" fill="black" fill-opacity="0.22"/>
  <path fill-rule="evenodd" clip-rule="evenodd" d="M946.939 188.426C946.939 188.426 962.024 220.822 926.18 246.122L949.579 237.881L974.395 198.299" fill="black" fill-opacity="0.22"/>
  </g>
  <path fill-rule="evenodd" clip-rule="evenodd" d="M837.352 180.579C837.352 180.579 918.629 168.605 964.402 198.299C964.402 198.299 971.24 185.579 972.322 165.996C972.78 158.412 968.493 151.344 961.579 148.284C942.451 139.559 903.221 116.613 896.221 72.4053" fill="#00D6E4"/>
  <mask id="mask1_4317_6533" style="mask-type:luminance" maskUnits="userSpaceOnUse" x="837" y="72" width="136" height="127">
  <path d="M837.352 180.579C837.352 180.579 918.629 168.605 964.402 198.299C964.402 198.299 971.24 185.579 972.322 165.996C972.78 158.412 968.493 151.344 961.579 148.284C942.451 139.559 903.221 116.613 896.221 72.4053" fill="white"/>
  </mask>
  <g mask="url(#mask1_4317_6533)">
  <path fill-rule="evenodd" clip-rule="evenodd" d="M936.058 129.881C936.058 129.881 940.375 136.024 942.749 142.668C946.195 152.307 941.538 172.423 923.156 182.564C923.156 182.564 956.479 203.363 964.401 203.836C972.323 204.31 978.771 179.893 978.771 179.893C981.582 169.455 980.094 159.737 974.762 150.664L936.058 129.881Z" fill="#C81069"/>
  <path fill-rule="evenodd" clip-rule="evenodd" d="M957.406 194.39C959.181 195.121 925.318 195.983 925.318 195.983L862.406 180.362L912.095 107.061C910.128 162.813 921.433 179.556 957.406 194.39Z" fill="black" fill-opacity="0.16"/>
  <path fill-rule="evenodd" clip-rule="evenodd" d="M911.283 108.207C911.283 108.207 916.129 158.293 885.319 185.347L854.477 179.943L911.283 108.207Z" fill="black" fill-opacity="0.16"/>
  </g>
  <path fill-rule="evenodd" clip-rule="evenodd" d="M896.223 72.4045C896.223 72.4045 892.523 62.7981 893.492 63.9948C938.863 120.038 889.49 197.551 829.617 182.564L896.223 72.4045Z" fill="#E50471"/>
  <mask id="mask2_4317_6533" style="mask-type:luminance" maskUnits="userSpaceOnUse" x="829" y="63" width="83" height="122">
  <path d="M896.223 72.4045C896.223 72.4045 892.523 62.7981 893.492 63.9948C938.863 120.038 889.49 197.551 829.617 182.564L896.223 72.4045Z" fill="white"/>
  </mask>
  <g mask="url(#mask2_4317_6533)">
  <path fill-rule="evenodd" clip-rule="evenodd" d="M823.867 182.275C850.128 190.967 876.944 163.849 888.818 144.817C899.077 128.372 913.136 90.0754 895.539 63.8046C875.172 33.3977 823.867 182.275 823.867 182.275Z" fill="white" fill-opacity="0.21"/>
  </g>
  <path fill-rule="evenodd" clip-rule="evenodd" d="M883.481 55.4955C904.867 66.4618 906.131 99.5047 887.979 135.32C869.827 171.136 840.48 190.496 819.093 179.53C797.706 168.564 792.327 131.397 810.479 95.5813C828.631 59.7656 862.094 44.5293 883.481 55.4955Z" fill="#00D6E4"/>
  <mask id="mask3_4317_6533" style="mask-type:luminance" maskUnits="userSpaceOnUse" x="799" y="52" width="102" height="131">
  <path d="M883.481 55.4955C904.867 66.4618 906.131 99.5047 887.979 135.32C869.827 171.136 840.48 190.496 819.093 179.53C797.706 168.564 792.327 131.397 810.479 95.5813C828.631 59.7656 862.094 44.5293 883.481 55.4955Z" fill="white"/>
  </mask>
  <g mask="url(#mask3_4317_6533)">
  <path fill-rule="evenodd" clip-rule="evenodd" d="M896.851 114.452C904.274 118.33 903.819 134.028 895.836 149.486C887.853 164.944 875.346 174.345 867.923 170.467C860.501 166.588 860.956 150.89 868.938 135.432C876.921 119.975 889.429 110.573 896.851 114.452Z" fill="#280516" fill-opacity="0.14"/>
  <path fill-rule="evenodd" clip-rule="evenodd" d="M904.477 99.6939C917.512 106.505 918.199 131.197 906.01 154.8C893.821 178.403 873.342 192.036 860.306 185.225C847.271 178.414 846.584 153.722 858.774 130.119C870.963 106.516 891.442 92.8833 904.477 99.6939Z" fill="#280516" fill-opacity="0.14"/>
  <path fill-rule="evenodd" clip-rule="evenodd" d="M910.473 82.2112C933.836 94.4184 939.151 130.766 922.335 163.329C905.518 195.892 872.897 212.419 849.534 200.211C826.17 188.004 820.855 151.656 837.672 119.093C854.488 86.5303 887.109 70.004 910.473 82.2112Z" fill="#280516" fill-opacity="0.14"/>
  <path fill-rule="evenodd" clip-rule="evenodd" d="M857.383 174.333C843.421 182.228 825.885 189.603 814.763 183.144C793.365 170.717 787.701 123.769 807.326 89.5799C826.95 55.3907 863.573 42.5766 884.972 55.0033C893.521 59.9681 907.089 78.4565 901.234 97.9345C898.898 74.9912 891.779 71.3642 886.136 68.0868C868.794 58.016 843.623 71.1208 825.503 102.689C807.383 134.258 809.246 165.254 826.588 175.325C834.6 179.978 846.664 180.108 857.383 174.333ZM888.712 138.541C888.539 138.849 888.363 139.158 888.187 139.466C885.736 143.734 883.073 147.745 880.246 151.472C883.112 147.672 885.831 143.564 888.345 139.184C888.468 138.969 888.59 138.755 888.712 138.541Z" fill="#B70059"/>
  <path fill-rule="evenodd" clip-rule="evenodd" d="M856.224 175.265C808.742 198.231 789.062 145.619 814.477 96.1434C823.46 78.657 849.469 47.1282 880.413 57.3983C899.371 63.6903 900.814 95.2086 900.814 95.2086C900.814 95.2086 912.034 63.8634 906.75 54.3324C901.465 44.8012 882.576 35.7187 869.106 38.0218C849.802 41.3228 804.485 52.3017 790.923 74.1381C777.362 95.9746 780.668 149.421 787.738 169.04C793.524 185.096 821.93 190.818 833.345 191.856C842.708 192.707 856.224 175.265 856.224 175.265Z" fill="white" fill-opacity="0.21"/>
  <path fill-rule="evenodd" clip-rule="evenodd" d="M860.922 112.713C863.403 123.453 858.156 132.416 849.453 133.292L900.536 169.93L918.575 139.842L860.922 112.713Z" fill="#DF016C"/>
  <mask id="mask4_4317_6533" style="mask-type:luminance" maskUnits="userSpaceOnUse" x="849" y="112" width="70" height="58">
  <path d="M860.922 112.713C863.403 123.453 858.156 132.416 849.453 133.292L900.536 169.93L918.575 139.842L860.922 112.713Z" fill="white"/>
  </mask>
  <g mask="url(#mask4_4317_6533)">
  <path fill-rule="evenodd" clip-rule="evenodd" d="M855.858 111.945C853.46 121.642 902.711 130.926 895.665 163.267C891.667 181.618 912.731 139.385 906.097 130.832C899.463 122.278 859.171 98.5515 855.858 111.945Z" fill="black" fill-opacity="0.07"/>
  </g>
  <path fill-rule="evenodd" clip-rule="evenodd" d="M860.763 112.552C864.181 114.537 864.322 120.739 861.076 126.393C857.831 132.047 852.421 135.025 849.002 133.04C845.584 131.055 845.443 124.853 848.689 119.199C851.934 113.545 857.344 110.566 860.763 112.552Z" fill="#FF007C"/>
  </g>
  </g>
  <path opacity="0.02" fill-rule="evenodd" clip-rule="evenodd" d="M426.295 -1.49219L427.044 -0.192343C430.887 6.48202 438.526 17.1038 448.883 27.1276C459.245 37.157 472.234 46.496 486.766 50.7556C495.825 53.4105 508.972 54.0322 524.188 54.4317C526.235 54.4855 528.318 54.5353 530.43 54.5857C543.924 54.9082 558.616 55.2594 572.961 56.8614C606.057 60.5573 638.096 70.9958 649.598 103.971C657.517 126.675 650.349 158.363 631.774 179.73C622.455 190.45 610.212 198.637 595.471 201.786C580.721 204.937 563.6 203.015 544.581 193.736C523.576 183.488 504.619 190.739 490.673 202.089C483.699 207.764 478.037 214.428 474.099 220.325C472.131 223.273 470.606 226.01 469.566 228.315C468.506 230.664 468.014 232.428 467.972 233.473L467.913 234.972L464.915 234.853L464.975 233.354C465.04 231.715 465.731 229.521 466.831 227.081C467.951 224.598 469.562 221.717 471.604 218.659C475.687 212.545 481.545 205.65 488.779 199.762C503.249 187.986 523.461 180.094 545.896 191.04C564.406 200.071 580.846 201.843 594.845 198.852C608.853 195.86 620.548 188.071 629.51 177.761C647.499 157.068 654.273 126.485 646.765 104.959C635.889 73.777 605.574 63.522 572.628 59.8428C558.424 58.2566 543.877 57.9085 530.374 57.5854C528.258 57.5348 526.168 57.4848 524.109 57.4307C508.997 57.0339 495.429 56.4208 485.923 53.6344C470.752 49.188 457.353 39.5003 446.796 29.2832C436.234 19.0605 428.424 8.2159 424.444 1.30486L423.695 0.00501382L426.295 -1.49219Z" fill="white"/>
  <path d="M654.862 161.88C652.095 169.068 644.025 172.651 636.838 169.884C629.65 167.117 626.066 159.047 628.834 151.86C631.601 144.672 639.67 141.089 646.858 143.856C654.045 146.623 657.629 154.693 654.862 161.88Z" fill="#1E2730"/>
  <path d="M645.79 159.837C646.292 160.03 646.698 160.415 646.916 160.908C647.135 161.4 647.149 161.959 646.955 162.462L646.782 162.914C645.911 165.174 642.592 165.861 638.934 164.453C635.275 163.044 633.239 160.398 634.144 158.049L634.318 157.597C634.511 157.094 634.896 156.689 635.389 156.47C635.881 156.251 636.44 156.237 636.943 156.431L645.79 159.837ZM644.772 149.287C645.27 149.479 645.725 149.767 646.112 150.134C646.499 150.502 646.809 150.942 647.025 151.43C647.242 151.917 647.36 152.443 647.374 152.976C647.387 153.509 647.296 154.04 647.104 154.538C646.912 155.036 646.624 155.491 646.257 155.878C645.889 156.265 645.449 156.575 644.961 156.792C644.474 157.008 643.948 157.126 643.415 157.14C642.882 157.153 642.351 157.062 641.853 156.87C640.847 156.483 640.037 155.712 639.599 154.727C639.162 153.743 639.134 152.624 639.521 151.619C639.908 150.613 640.679 149.803 641.664 149.366C642.648 148.928 643.767 148.9 644.772 149.287Z" fill="#1C1E29"/>
  <path d="M610.981 58.4477C613.988 65.5383 610.677 73.7239 603.587 76.7308C596.496 79.7377 588.311 76.4272 585.304 69.3366C582.297 62.2461 585.607 54.0605 592.698 51.0536C599.789 48.0467 607.974 51.3572 610.981 58.4477Z" fill="#1E2730"/>
  <path d="M603.033 63.2889C603.529 63.0785 604.088 63.0738 604.587 63.2758C605.087 63.4778 605.485 63.8699 605.696 64.3659L605.885 64.8116C606.83 67.0414 604.922 69.8424 601.313 71.373C597.703 72.9036 594.4 72.4163 593.417 70.0987L593.228 69.6529C593.018 69.157 593.013 68.5977 593.215 68.0983C593.417 67.5989 593.809 67.2001 594.305 66.9898L603.033 63.2889ZM594.968 56.4121C595.459 56.2039 595.987 56.0943 596.52 56.0899C597.054 56.0854 597.583 56.1861 598.077 56.3861C598.572 56.5861 599.022 56.8816 599.403 57.2557C599.783 57.6297 600.086 58.0751 600.294 58.5663C600.503 59.0574 600.612 59.5848 600.617 60.1183C600.621 60.6518 600.52 61.181 600.32 61.6755C600.12 62.1701 599.825 62.6205 599.451 63.0009C599.077 63.3813 598.631 63.6843 598.14 63.8926C597.148 64.3132 596.03 64.3226 595.031 63.9186C594.032 63.5147 593.235 62.7304 592.814 61.7385C592.393 60.7465 592.384 59.6281 592.788 58.6292C593.192 57.6303 593.976 56.8328 594.968 56.4121Z" fill="#1C1E29"/>
  <path d="M560.79 190.15C561.073 197.847 555.063 204.316 547.367 204.599C539.67 204.882 533.202 198.872 532.919 191.175C532.636 183.479 538.646 177.01 546.342 176.727C554.039 176.444 560.507 182.454 560.79 190.15Z" fill="#1E2730"/>
  <path d="M551.64 191.842C552.179 191.822 552.703 192.017 553.098 192.384C553.492 192.751 553.725 193.259 553.745 193.797L553.763 194.281C553.852 196.702 551.07 198.639 547.153 198.783C543.235 198.927 540.322 197.295 540.23 194.779L540.212 194.295C540.192 193.757 540.387 193.232 540.754 192.838C541.12 192.443 541.629 192.21 542.167 192.19L551.64 191.842ZM546.556 182.543C547.089 182.524 547.62 182.609 548.121 182.795C548.621 182.981 549.079 183.264 549.47 183.627C549.861 183.99 550.176 184.427 550.399 184.912C550.621 185.397 550.745 185.921 550.765 186.454C550.784 186.987 550.699 187.519 550.513 188.019C550.327 188.519 550.044 188.977 549.681 189.368C549.318 189.759 548.881 190.075 548.396 190.297C547.911 190.519 547.387 190.643 546.854 190.663C545.777 190.703 544.729 190.313 543.94 189.579C543.15 188.846 542.684 187.829 542.645 186.752C542.605 185.676 542.995 184.627 543.728 183.838C544.462 183.049 545.479 182.583 546.556 182.543Z" fill="#1C1E29"/>
  <path d="M497.759 55.9264C494.852 63.0585 486.714 66.4836 479.582 63.5766C472.45 60.6695 469.025 52.5312 471.932 45.3991C474.839 38.2671 482.977 34.842 490.109 37.749C497.241 40.656 500.666 48.7943 497.759 55.9264Z" fill="#1E2730"/>
  <path d="M488.722 53.705C489.221 53.9084 489.619 54.3016 489.828 54.7981C490.036 55.2947 490.04 55.8539 489.836 56.3528L489.654 56.8011C488.739 59.044 485.408 59.666 481.777 58.1862C478.147 56.7065 476.163 54.021 477.113 51.6897L477.296 51.2414C477.499 50.7425 477.892 50.3448 478.389 50.1358C478.886 49.9269 479.445 49.9237 479.944 50.127L488.722 53.705ZM487.911 43.1377C488.405 43.3391 488.854 43.6358 489.234 44.0109C489.613 44.3861 489.915 44.8322 490.122 45.3239C490.329 45.8157 490.437 46.3434 490.44 46.8769C490.443 47.4104 490.341 47.9393 490.14 48.4333C489.938 48.9274 489.641 49.3769 489.266 49.7563C488.891 50.1357 488.445 50.4374 487.953 50.6444C487.462 50.8513 486.934 50.9594 486.4 50.9624C485.867 50.9655 485.338 50.8634 484.844 50.662C483.846 50.2553 483.051 49.4689 482.633 48.4758C482.215 47.4827 482.209 46.3642 482.615 45.3664C483.022 44.3687 483.808 43.5733 484.801 43.1554C485.795 42.7374 486.913 42.7311 487.911 43.1377Z" fill="#1C1E29"/>
  <path opacity="0.01" fill-rule="evenodd" clip-rule="evenodd" d="M910.391 -6.21551L910.013 -3.23949C908.387 9.54117 906.685 27.7987 912.763 43.7526C915.774 51.6546 920.691 58.9717 928.513 64.7941C936.35 70.6273 947.268 75.0816 962.459 76.9805C984.071 79.682 997.146 98.2421 1004.34 116.998C1007.98 126.477 1010.23 136.267 1011.37 144.682C1012.49 153.009 1012.57 160.285 1011.65 164.646L1011.03 167.582L1005.16 166.346L1005.78 163.41C1006.48 160.057 1006.52 153.59 1005.42 145.485C1004.34 137.467 1002.19 128.137 998.742 119.148C991.766 100.97 979.905 85.2078 961.715 82.9341C945.728 80.9357 933.769 76.1857 924.931 69.6071C916.078 63.0176 910.52 54.7151 907.157 45.889C900.488 28.3867 902.439 8.75381 904.061 -3.99664L904.439 -6.97266L910.391 -6.21551Z" fill="white"/>
  <path opacity="0.01" fill-rule="evenodd" clip-rule="evenodd" d="M310.512 269.993L310.108 267.021C306.283 238.922 299.428 198.272 276.817 166.989C265.558 151.412 250.402 138.175 229.723 129.962C209.028 121.743 182.611 118.481 148.732 123.167C109.238 128.629 79.9697 123.979 58.3086 113.078C36.618 102.162 22.8632 85.1337 14.1362 66.4337C-0.426535 35.229 -1.11285 -1.08949 -1.50603 -21.8957C-1.5806 -25.8424 -1.64463 -29.231 -1.79084 -31.9206L-1.95365 -34.9162L4.03749 -35.2418L4.20033 -32.2463C4.35884 -29.3302 4.43021 -25.7491 4.51207 -21.642C4.92999 -0.675198 5.62112 34.0001 19.5732 63.8963C27.8514 81.6344 40.753 97.526 61.0058 107.718C81.2881 117.925 109.25 122.57 147.909 117.223C182.583 112.427 210.082 115.706 231.938 124.386C253.811 133.073 269.842 147.096 281.68 163.474C305.261 196.1 312.233 238.143 316.053 266.212L316.458 269.184L310.512 269.993Z" fill="white"/>
  </g>
  <defs>
  <filter id="filter0_b_4317_6533" x="-372.102" y="-377" width="1752.14" height="971.419" filterUnits="userSpaceOnUse" color-interpolation-filters="sRGB">
  <feFlood flood-opacity="0" result="BackgroundImageFix"/>
  <feGaussianBlur in="BackgroundImageFix" stdDeviation="186.5"/>
  <feComposite in2="SourceAlpha" operator="in" result="effect1_backgroundBlur_4317_6533"/>
  <feBlend mode="normal" in="SourceGraphic" in2="effect1_backgroundBlur_4317_6533" result="shape"/>
  </filter>
  <clipPath id="clip0_4317_6533">
  <rect width="1007" height="222" fill="white"/>
  </clipPath>
  <clipPath id="clip1_4317_6533">
  <rect width="173" height="194" fill="white" transform="translate(799.5 52)"/>
  </clipPath>
  </defs>
  </svg>
  