<svg width="1504" height="966" viewBox="0 0 1504 966" fill="none" xmlns="http://www.w3.org/2000/svg">
  <rect width="1504" height="966" fill="#0B0F14"/>
  <path opacity="0.05" fill-rule="evenodd" clip-rule="evenodd" d="M168.731 251.497L166.79 253.437C162.747 249.663 157.748 247.432 148.678 249.221C147.277 249.474 145.874 248.788 145.215 247.527C144.555 246.266 144.791 244.722 145.797 243.716C152.586 236.92 160.892 228.614 162.945 226.56C163.263 226.242 163.643 225.994 164.061 225.83C180.487 219.389 188.362 221.498 193.668 226.175C229.12 190.049 235.508 185.258 268.124 192.947C275.819 225.588 271.026 231.949 234.82 267.478C239.505 272.785 241.622 280.659 235.176 297.098C235.012 297.517 234.764 297.897 234.446 298.214C232.392 300.268 224.086 308.574 217.29 315.362C216.284 316.368 214.74 316.604 213.479 315.945C212.218 315.285 211.532 313.883 211.785 312.482C213.574 303.412 211.343 298.413 207.569 294.369L213.699 288.239C211.75 290.172 209.742 292.17 207.674 294.238L207.532 294.379L200.322 287.168L187.706 289.426C186.656 289.614 185.581 289.276 184.826 288.522L172.54 276.236C171.785 275.481 171.447 274.404 171.636 273.353L173.9 260.747L166.692 253.539C167.379 252.851 168.058 252.171 168.731 251.497ZM247.935 213.136C242.105 207.305 232.638 207.305 226.808 213.136C220.978 218.966 220.978 228.432 226.808 234.263C232.638 240.093 242.105 240.093 247.935 234.263C253.766 228.432 253.766 218.966 247.935 213.136ZM153.959 305.982C153.959 305.982 157.842 291.464 161.785 287.521C164.72 284.586 169.485 284.586 172.42 287.521C175.355 290.455 175.355 295.221 172.42 298.156C168.477 302.099 153.959 305.982 153.959 305.982Z" fill="#7E8895"/>
  <path opacity="0.05" fill-rule="evenodd" clip-rule="evenodd" d="M764.887 776.685L762.947 778.625C758.903 774.852 753.904 772.62 744.834 774.41C743.433 774.662 742.031 773.976 741.371 772.715C740.711 771.454 740.947 769.911 741.954 768.904C748.742 762.108 757.048 753.802 759.101 751.749C759.419 751.431 759.799 751.182 760.217 751.018C776.643 744.577 784.518 746.686 789.824 751.363C825.276 715.237 831.664 710.446 864.28 718.135C871.975 750.776 867.182 757.138 830.976 792.666C835.661 797.973 837.779 805.847 831.333 822.287C831.169 822.705 830.92 823.085 830.602 823.403C828.549 825.456 820.242 833.762 813.447 840.55C812.44 841.557 810.897 841.793 809.636 841.133C808.375 840.473 807.688 839.071 807.941 837.67C809.73 828.6 807.499 823.601 803.725 819.557L809.855 813.427C807.906 815.36 805.898 817.359 803.83 819.426L803.689 819.568L796.478 812.357L783.863 814.615C782.813 814.802 781.737 814.465 780.982 813.71L768.696 801.424C767.941 800.669 767.604 799.593 767.792 798.542L770.056 785.935L762.848 778.727C763.535 778.04 764.215 777.359 764.887 776.685ZM844.092 738.324C838.261 732.494 828.795 732.494 822.965 738.324C817.134 744.154 817.134 753.621 822.965 759.451C828.795 765.281 838.261 765.281 844.092 759.451C849.922 753.621 849.922 744.154 844.092 738.324ZM750.115 831.17C750.115 831.17 753.998 816.652 757.941 812.709C760.876 809.774 765.641 809.774 768.576 812.709C771.511 815.644 771.511 820.409 768.576 823.344C764.633 827.287 750.115 831.17 750.115 831.17Z" fill="#7E8895"/>
  <path opacity="0.03" fill-rule="evenodd" clip-rule="evenodd" d="M1409.68 904.897L1410.47 906.259C1407.78 907.937 1405.81 910.373 1405.45 915.659C1405.38 916.472 1404.8 917.146 1404 917.324C1403.2 917.502 1402.38 917.143 1401.98 916.437C1399.22 911.671 1395.86 905.842 1395.02 904.401C1394.9 904.178 1394.81 903.931 1394.79 903.675C1393.66 893.629 1395.99 889.583 1399.37 887.339C1384.63 862.36 1382.93 858.113 1392.02 841.201C1411.23 841.783 1414.04 845.379 1428.33 870.688C1431.96 868.882 1436.64 868.878 1444.78 874.884C1444.99 875.036 1445.16 875.23 1445.29 875.453C1446.12 876.895 1449.49 882.724 1452.23 887.492C1452.64 888.198 1452.54 889.087 1451.99 889.688C1451.44 890.288 1450.56 890.46 1449.82 890.112C1445.07 887.776 1441.97 888.27 1439.17 889.759L1436.69 885.457C1437.47 886.823 1438.28 888.23 1439.12 889.681L1439.17 889.781L1434.11 892.702L1433.49 900.02C1433.44 900.629 1433.09 901.174 1432.56 901.48L1423.94 906.458C1423.41 906.764 1422.77 906.791 1422.21 906.531L1415.57 903.408L1410.51 906.329C1410.23 905.846 1409.96 905.369 1409.68 904.897ZM1400.2 855.369C1396.11 857.732 1394.7 862.971 1397.07 867.063C1399.43 871.155 1404.67 872.559 1408.76 870.196C1412.85 867.834 1414.25 862.594 1411.89 858.503C1409.53 854.411 1404.29 853.007 1400.2 855.369ZM1437.65 921.153C1437.65 921.153 1430.19 916.851 1428.59 914.084C1427.4 912.024 1428.11 909.387 1430.17 908.198C1432.23 907.009 1434.87 907.715 1436.06 909.775C1437.65 912.542 1437.65 921.153 1437.65 921.153Z" fill="#7E8895"/>
  <path opacity="0.03" fill-rule="evenodd" clip-rule="evenodd" d="M175.684 702.897L176.47 704.259C173.782 705.937 171.806 708.373 171.451 713.659C171.383 714.472 170.795 715.146 169.999 715.324C169.204 715.502 168.384 715.143 167.976 714.437C165.222 709.671 161.856 703.842 161.024 702.401C160.895 702.178 160.814 701.931 160.785 701.675C159.657 691.629 161.992 687.583 165.367 685.339C150.63 660.36 148.926 656.113 158.018 639.201C177.226 639.783 180.036 643.379 194.331 668.688C197.963 666.882 202.635 666.878 210.778 672.884C210.986 673.036 211.159 673.23 211.288 673.453C212.12 674.895 215.485 680.724 218.234 685.492C218.642 686.198 218.544 687.087 217.992 687.688C217.44 688.288 216.561 688.46 215.824 688.112C211.069 685.776 207.971 686.27 205.173 687.759L202.69 683.457C203.47 684.823 204.279 686.23 205.116 687.681L205.174 687.781L200.113 690.702L199.492 698.02C199.44 698.629 199.094 699.174 198.564 699.48L189.942 704.458C189.412 704.764 188.766 704.791 188.213 704.531L181.571 701.408L176.512 704.329C176.234 703.846 175.958 703.369 175.684 702.897ZM166.199 653.369C162.107 655.732 160.703 660.971 163.065 665.063C165.427 669.155 170.667 670.559 174.759 668.196C178.85 665.834 180.254 660.594 177.892 656.503C175.53 652.411 170.29 651.007 166.199 653.369ZM203.65 719.153C203.65 719.153 196.191 714.851 194.593 712.084C193.404 710.024 194.11 707.387 196.17 706.198C198.23 705.009 200.867 705.715 202.056 707.775C203.654 710.542 203.65 719.153 203.65 719.153Z" fill="#7E8895"/>
  <path opacity="0.03" fill-rule="evenodd" clip-rule="evenodd" d="M1007.68 314.897L1008.47 316.259C1005.78 317.937 1003.81 320.373 1003.45 325.659C1003.38 326.472 1002.8 327.146 1002 327.324C1001.2 327.502 1000.38 327.143 999.976 326.437C997.222 321.671 993.856 315.842 993.024 314.401C992.895 314.178 992.814 313.931 992.785 313.675C991.657 303.629 993.992 299.583 997.367 297.339C982.63 272.36 980.926 268.113 990.018 251.201C1009.23 251.783 1012.04 255.379 1026.33 280.688C1029.96 278.882 1034.64 278.878 1042.78 284.884C1042.99 285.036 1043.16 285.23 1043.29 285.453C1044.12 286.895 1047.49 292.724 1050.23 297.492C1050.64 298.198 1050.54 299.087 1049.99 299.688C1049.44 300.288 1048.56 300.46 1047.82 300.112C1043.07 297.776 1039.97 298.27 1037.17 299.759L1034.69 295.457C1035.47 296.823 1036.28 298.23 1037.12 299.681L1037.17 299.781L1032.11 302.702L1031.49 310.02C1031.44 310.629 1031.09 311.174 1030.56 311.48L1021.94 316.458C1021.41 316.764 1020.77 316.791 1020.21 316.531L1013.57 313.408L1008.51 316.329C1008.23 315.846 1007.96 315.369 1007.68 314.897ZM998.199 265.369C994.107 267.732 992.703 272.971 995.065 277.063C997.427 281.155 1002.67 282.559 1006.76 280.196C1010.85 277.834 1012.25 272.594 1009.89 268.503C1007.53 264.411 1002.29 263.007 998.199 265.369ZM1035.65 331.153C1035.65 331.153 1028.19 326.851 1026.59 324.084C1025.4 322.024 1026.11 319.387 1028.17 318.198C1030.23 317.009 1032.87 317.715 1034.06 319.775C1035.65 322.542 1035.65 331.153 1035.65 331.153Z" fill="#7E8895"/>
  <path opacity="0.03" fill-rule="evenodd" clip-rule="evenodd" d="M613.684 728.897L614.47 730.259C611.782 731.937 609.806 734.373 609.451 739.659C609.383 740.472 608.795 741.146 607.999 741.324C607.204 741.502 606.384 741.143 605.976 740.437C603.222 735.671 599.856 729.842 599.024 728.401C598.895 728.178 598.814 727.931 598.785 727.675C597.657 717.629 599.992 713.583 603.367 711.339C588.63 686.36 586.926 682.113 596.018 665.201C615.226 665.783 618.036 669.379 632.331 694.688C635.963 692.882 640.635 692.878 648.778 698.884C648.986 699.036 649.159 699.23 649.288 699.453C650.12 700.895 653.485 706.724 656.234 711.492C656.642 712.198 656.544 713.087 655.992 713.688C655.44 714.288 654.561 714.46 653.824 714.112C649.069 711.776 645.971 712.27 643.173 713.759L640.69 709.457C641.47 710.823 642.279 712.23 643.116 713.681L643.174 713.781L638.113 716.702L637.492 724.02C637.44 724.629 637.094 725.174 636.564 725.48L627.942 730.458C627.412 730.764 626.766 730.791 626.213 730.531L619.571 727.408L614.512 730.329C614.234 729.846 613.958 729.369 613.684 728.897ZM604.199 679.369C600.107 681.732 598.703 686.971 601.065 691.063C603.427 695.155 608.667 696.559 612.759 694.196C616.85 691.834 618.254 686.594 615.892 682.503C613.53 678.411 608.29 677.007 604.199 679.369ZM641.65 745.153C641.65 745.153 634.191 740.851 632.593 738.084C631.404 736.024 632.11 733.387 634.17 732.198C636.23 731.009 638.867 731.715 640.056 733.775C641.654 736.542 641.65 745.153 641.65 745.153Z" fill="#7E8895"/>
  <path opacity="0.03" fill-rule="evenodd" clip-rule="evenodd" d="M1292.61 485.873L1293.96 488.2C1289.36 491.068 1285.98 495.231 1285.38 504.264C1285.26 505.653 1284.26 506.805 1282.9 507.11C1281.54 507.414 1280.14 506.799 1279.44 505.593C1274.73 497.449 1268.98 487.488 1267.56 485.025C1267.34 484.644 1267.2 484.222 1267.15 483.785C1265.22 466.616 1269.21 459.702 1274.98 455.868C1249.8 413.18 1246.88 405.924 1262.42 377.022C1295.25 378.017 1300.05 384.162 1324.48 427.413C1330.69 424.326 1338.67 424.319 1352.59 434.582C1352.94 434.844 1353.24 435.175 1353.46 435.556C1354.88 438.019 1360.63 447.98 1365.33 456.129C1366.02 457.336 1365.86 458.855 1364.91 459.881C1363.97 460.907 1362.47 461.201 1361.21 460.606C1353.08 456.615 1347.79 457.459 1343.01 460.003L1338.76 452.651C1340.1 454.985 1341.48 457.391 1342.91 459.871L1343.01 460.04L1334.36 465.033L1333.3 477.538C1333.21 478.578 1332.62 479.51 1331.71 480.033L1316.98 488.54C1316.07 489.063 1314.97 489.109 1314.02 488.664L1302.67 483.328L1294.03 488.319C1293.55 487.495 1293.08 486.68 1292.61 485.873ZM1276.4 401.235C1269.41 405.271 1267.01 414.226 1271.05 421.218C1275.08 428.21 1284.04 430.609 1291.03 426.572C1298.02 422.535 1300.42 413.581 1296.39 406.589C1292.35 399.597 1283.39 397.198 1276.4 401.235ZM1340.4 513.654C1340.4 513.654 1327.66 506.302 1324.93 501.573C1322.89 498.053 1324.1 493.546 1327.62 491.514C1331.14 489.481 1335.65 490.689 1337.68 494.209C1340.41 498.938 1340.4 513.654 1340.4 513.654Z" fill="#7E8895"/>
  <path opacity="0.05" fill-rule="evenodd" clip-rule="evenodd" d="M1227.21 714.16H1246.15V696.031C1246.15 694.166 1246.89 692.378 1248.21 691.059C1249.53 689.741 1251.32 689 1253.18 689H1268.33C1270.2 689 1271.99 689.741 1273.31 691.059C1274.62 692.378 1275.37 694.166 1275.37 696.031V714.16H1293.5V696.031C1293.5 694.166 1294.24 692.378 1295.56 691.059C1296.88 689.741 1298.67 689 1300.53 689H1312.17C1314.97 689 1317.65 690.111 1319.63 692.089C1321.6 694.067 1322.72 696.75 1322.72 699.547V724.354C1322.72 726.759 1321.76 729.065 1320.06 730.765C1318.36 732.465 1316.05 733.42 1313.65 733.42H1310.7C1306.78 733.42 1303.6 736.6 1303.6 740.522C1303.6 755.82 1303.6 791.74 1303.6 807.039C1303.6 810.961 1306.78 814.14 1310.7 814.14C1311.58 814.14 1312.17 814.14 1312.17 814.14C1314.97 814.14 1317.65 815.251 1319.63 817.229C1321.6 819.207 1322.72 821.89 1322.72 824.687V830.637C1322.72 832.502 1321.97 834.291 1320.66 835.609C1319.34 836.928 1317.55 837.669 1315.68 837.669H1205.03C1203.17 837.669 1201.38 836.928 1200.06 835.609C1198.74 834.291 1198 832.502 1198 830.637V824.687C1198 821.89 1199.11 819.207 1201.09 817.229C1203.07 815.251 1205.75 814.14 1208.55 814.14H1210.98C1214.9 814.14 1218.08 810.961 1218.08 807.039C1218.08 791.74 1218.08 755.82 1218.08 740.522C1218.08 736.6 1214.9 733.42 1210.98 733.42C1208.85 733.42 1207.07 733.42 1207.07 733.42C1204.66 733.42 1202.36 732.465 1200.66 730.765C1198.96 729.065 1198 726.759 1198 724.354V699.547C1198 696.75 1199.11 694.067 1201.09 692.089C1203.07 690.111 1205.75 689 1208.55 689H1220.18C1222.05 689 1223.84 689.741 1225.15 691.059C1226.47 692.378 1227.21 694.166 1227.21 696.031V714.16ZM1272.06 810.732C1274.31 810.732 1276.14 808.906 1276.14 806.654C1276.14 798.698 1276.14 781.879 1276.14 781.879C1276.14 773.165 1269.07 766.101 1260.36 766.101C1251.64 766.101 1244.58 773.165 1244.58 781.879V806.654C1244.58 808.906 1246.41 810.732 1248.66 810.732H1272.06Z" fill="#7E8895"/>
  <path opacity="0.05" fill-rule="evenodd" clip-rule="evenodd" d="M543.213 92.1597H562.152V74.0312C562.152 72.1664 562.893 70.378 564.212 69.0594C565.53 67.7408 567.319 67 569.184 67H584.335C586.199 67 587.988 67.7408 589.306 69.0594C590.625 70.378 591.366 72.1664 591.366 74.0312V92.1597H609.502V74.0312C609.502 72.1664 610.243 70.378 611.562 69.0594C612.88 67.7408 614.669 67 616.533 67H628.169C630.966 67 633.649 68.1112 635.627 70.0891C637.604 72.067 638.716 74.7496 638.716 77.5467V102.354C638.716 104.759 637.76 107.065 636.06 108.765C634.36 110.465 632.054 111.42 629.649 111.42H626.7C622.778 111.42 619.599 114.6 619.599 118.522C619.599 133.82 619.599 169.74 619.599 185.039C619.599 188.961 622.778 192.14 626.7 192.14C627.575 192.14 628.169 192.14 628.169 192.14C630.966 192.14 633.649 193.251 635.627 195.229C637.604 197.207 638.716 199.89 638.716 202.687V208.637C638.716 210.502 637.975 212.291 636.656 213.609C635.338 214.928 633.549 215.669 631.684 215.669H521.031C519.166 215.669 517.378 214.928 516.059 213.609C514.741 212.291 514 210.502 514 208.637V202.687C514 199.89 515.111 197.207 517.089 195.229C519.067 193.251 521.75 192.14 524.547 192.14H526.976C530.898 192.14 534.077 188.961 534.077 185.039C534.077 169.74 534.077 133.82 534.077 118.522C534.077 114.6 530.898 111.42 526.976 111.42C524.847 111.42 523.066 111.42 523.066 111.42C520.662 111.42 518.356 110.465 516.655 108.765C514.955 107.065 514 104.759 514 102.354V77.5467C514 74.7496 515.111 72.067 517.089 70.0891C519.067 68.1112 521.75 67 524.547 67H536.182C538.047 67 539.835 67.7408 541.154 69.0594C542.472 70.378 543.213 72.1664 543.213 74.0312V92.1597ZM588.058 188.732C590.31 188.732 592.136 186.906 592.136 184.654C592.136 176.698 592.136 159.879 592.136 159.879C592.136 151.165 585.072 144.101 576.358 144.101C567.644 144.101 560.58 151.165 560.58 159.879V184.654C560.58 186.906 562.405 188.732 564.658 188.732H588.058Z" fill="#7E8895"/>
  <path opacity="0.03" fill-rule="evenodd" clip-rule="evenodd" d="M1360.87 82.4003H1371.8V71.3038C1371.8 70.1623 1372.23 69.0677 1372.99 68.2606C1373.75 67.4534 1374.78 67 1375.86 67H1384.61C1385.68 67 1386.71 67.4534 1387.48 68.2606C1388.24 69.0677 1388.66 70.1623 1388.66 71.3038V82.4003H1399.13V71.3038C1399.13 70.1623 1399.56 69.0677 1400.32 68.2606C1401.08 67.4534 1402.12 67 1403.19 67H1409.91C1411.53 67 1413.07 67.6802 1414.22 68.8908C1415.36 70.1015 1416 71.7435 1416 73.4556V88.6404C1416 90.1122 1415.45 91.5237 1414.47 92.5643C1413.49 93.6051 1412.15 94.1897 1410.77 94.1897H1409.06C1406.8 94.1897 1404.96 96.1359 1404.96 98.5366C1404.96 107.901 1404.96 129.887 1404.96 139.251C1404.96 141.652 1406.8 143.598 1409.06 143.598C1409.57 143.598 1409.91 143.598 1409.91 143.598C1411.53 143.598 1413.07 144.278 1414.22 145.489C1415.36 146.7 1416 148.342 1416 150.054V153.696C1416 154.838 1415.57 155.932 1414.81 156.739C1414.05 157.547 1413.02 158 1411.94 158H1348.06C1346.98 158 1345.95 157.547 1345.19 156.739C1344.43 155.932 1344 154.838 1344 153.696V150.054C1344 148.342 1344.64 146.7 1345.78 145.489C1346.93 144.278 1348.47 143.598 1350.09 143.598H1351.49C1353.76 143.598 1355.59 141.652 1355.59 139.251C1355.59 129.887 1355.59 107.901 1355.59 98.5366C1355.59 96.1359 1353.76 94.1897 1351.49 94.1897C1350.26 94.1897 1349.23 94.1897 1349.23 94.1897C1347.85 94.1897 1346.51 93.6051 1345.53 92.5643C1344.55 91.5237 1344 90.1122 1344 88.6404V73.4556C1344 71.7435 1344.64 70.1015 1345.78 68.8908C1346.93 67.6802 1348.47 67 1350.09 67H1356.81C1357.88 67 1358.92 67.4534 1359.68 68.2606C1360.44 69.0677 1360.87 70.1623 1360.87 71.3038V82.4003ZM1386.75 141.512C1388.05 141.512 1389.11 140.394 1389.11 139.016C1389.11 134.146 1389.11 123.851 1389.11 123.851C1389.11 118.517 1385.03 114.193 1380 114.193C1374.97 114.193 1370.89 118.517 1370.89 123.851V139.016C1370.89 140.394 1371.95 141.512 1373.25 141.512H1386.75Z" fill="#7E8895"/>
  <path opacity="0.03" fill-rule="evenodd" clip-rule="evenodd" d="M88.8652 54.4003H99.799V43.3038C99.799 42.1623 100.227 41.0677 100.988 40.2606C101.749 39.4534 102.782 39 103.858 39H112.605C113.682 39 114.714 39.4534 115.475 40.2606C116.237 41.0677 116.664 42.1623 116.664 43.3038V54.4003H127.135V43.3038C127.135 42.1623 127.562 41.0677 128.324 40.2606C129.085 39.4534 130.117 39 131.194 39H137.911C139.526 39 141.075 39.6802 142.217 40.8908C143.358 42.1015 144 43.7435 144 45.4556V60.6404C144 62.1122 143.449 63.5237 142.467 64.5643C141.485 65.6051 140.154 66.1897 138.766 66.1897H137.063C134.799 66.1897 132.964 68.1359 132.964 70.5366C132.964 79.9007 132.964 101.887 132.964 111.251C132.964 113.652 134.799 115.598 137.063 115.598C137.569 115.598 137.911 115.598 137.911 115.598C139.526 115.598 141.075 116.278 142.217 117.489C143.358 118.7 144 120.342 144 122.054V125.696C144 126.838 143.572 127.932 142.811 128.739C142.05 129.547 141.017 130 139.941 130H76.0592C74.9826 130 73.9502 129.547 73.1889 128.739C72.4277 127.932 72 126.838 72 125.696V122.054C72 120.342 72.6415 118.7 73.7834 117.489C74.9252 116.278 76.4739 115.598 78.0888 115.598H79.491C81.7552 115.598 83.5908 113.652 83.5908 111.251C83.5908 101.887 83.5908 79.9007 83.5908 70.5366C83.5908 68.1359 81.7553 66.1897 79.491 66.1897C78.2619 66.1897 77.234 66.1897 77.234 66.1897C75.8459 66.1897 74.5145 65.6051 73.533 64.5643C72.5514 63.5237 72 62.1122 72 60.6404V45.4556C72 43.7435 72.6415 42.1015 73.7834 40.8908C74.9252 39.6802 76.4739 39 78.0888 39H84.8061C85.8826 39 86.915 39.4534 87.6763 40.2606C88.4375 41.0677 88.8652 42.1623 88.8652 43.3038V54.4003ZM114.755 113.512C116.055 113.512 117.109 112.394 117.109 111.016C117.109 106.146 117.109 95.8509 117.109 95.8509C117.109 90.5172 113.031 86.1933 108 86.1933C102.969 86.1933 98.891 90.5172 98.891 95.8509V111.016C98.891 112.394 99.9451 113.512 101.245 113.512H114.755Z" fill="#7E8895"/>
  <path opacity="0.03" fill-rule="evenodd" clip-rule="evenodd" d="M88.8652 840.4H99.799V829.304C99.799 828.162 100.227 827.068 100.988 826.261C101.749 825.453 102.782 825 103.858 825H112.605C113.682 825 114.714 825.453 115.475 826.261C116.237 827.068 116.664 828.162 116.664 829.304V840.4H127.135V829.304C127.135 828.162 127.562 827.068 128.324 826.261C129.085 825.453 130.117 825 131.194 825H137.911C139.526 825 141.075 825.68 142.217 826.891C143.358 828.101 144 829.743 144 831.456V846.64C144 848.112 143.449 849.524 142.467 850.564C141.485 851.605 140.154 852.19 138.766 852.19H137.063C134.799 852.19 132.964 854.136 132.964 856.537C132.964 865.901 132.964 887.887 132.964 897.251C132.964 899.652 134.799 901.598 137.063 901.598C137.569 901.598 137.911 901.598 137.911 901.598C139.526 901.598 141.075 902.278 142.217 903.489C143.358 904.7 144 906.342 144 908.054V911.696C144 912.838 143.572 913.932 142.811 914.739C142.05 915.547 141.017 916 139.941 916H76.0592C74.9826 916 73.9502 915.547 73.1889 914.739C72.4277 913.932 72 912.838 72 911.696V908.054C72 906.342 72.6415 904.7 73.7834 903.489C74.9252 902.278 76.4739 901.598 78.0888 901.598H79.491C81.7552 901.598 83.5908 899.652 83.5908 897.251C83.5908 887.887 83.5908 865.901 83.5908 856.537C83.5908 854.136 81.7553 852.19 79.491 852.19C78.2619 852.19 77.234 852.19 77.234 852.19C75.8459 852.19 74.5145 851.605 73.533 850.564C72.5514 849.524 72 848.112 72 846.64V831.456C72 829.743 72.6415 828.101 73.7834 826.891C74.9252 825.68 76.4739 825 78.0888 825H84.8061C85.8826 825 86.915 825.453 87.6763 826.261C88.4375 827.068 88.8652 828.162 88.8652 829.304V840.4ZM114.755 899.512C116.055 899.512 117.109 898.394 117.109 897.016C117.109 892.146 117.109 881.851 117.109 881.851C117.109 876.517 113.031 872.193 108 872.193C102.969 872.193 98.891 876.517 98.891 881.851V897.016C98.891 898.394 99.9451 899.512 101.245 899.512H114.755Z" fill="#7E8895"/>
  <path opacity="0.03" fill-rule="evenodd" clip-rule="evenodd" d="M1075.87 613.4H1086.8V602.304C1086.8 601.162 1087.23 600.068 1087.99 599.261C1088.75 598.453 1089.78 598 1090.86 598H1099.61C1100.68 598 1101.71 598.453 1102.48 599.261C1103.24 600.068 1103.66 601.162 1103.66 602.304V613.4H1114.13V602.304C1114.13 601.162 1114.56 600.068 1115.32 599.261C1116.08 598.453 1117.12 598 1118.19 598H1124.91C1126.53 598 1128.07 598.68 1129.22 599.891C1130.36 601.101 1131 602.743 1131 604.456V619.64C1131 621.112 1130.45 622.524 1129.47 623.564C1128.49 624.605 1127.15 625.19 1125.77 625.19H1124.06C1121.8 625.19 1119.96 627.136 1119.96 629.537C1119.96 638.901 1119.96 660.887 1119.96 670.251C1119.96 672.652 1121.8 674.598 1124.06 674.598C1124.57 674.598 1124.91 674.598 1124.91 674.598C1126.53 674.598 1128.07 675.278 1129.22 676.489C1130.36 677.7 1131 679.342 1131 681.054V684.696C1131 685.838 1130.57 686.932 1129.81 687.739C1129.05 688.547 1128.02 689 1126.94 689H1063.06C1061.98 689 1060.95 688.547 1060.19 687.739C1059.43 686.932 1059 685.838 1059 684.696V681.054C1059 679.342 1059.64 677.7 1060.78 676.489C1061.93 675.278 1063.47 674.598 1065.09 674.598H1066.49C1068.76 674.598 1070.59 672.652 1070.59 670.251C1070.59 660.887 1070.59 638.901 1070.59 629.537C1070.59 627.136 1068.76 625.19 1066.49 625.19C1065.26 625.19 1064.23 625.19 1064.23 625.19C1062.85 625.19 1061.51 624.605 1060.53 623.564C1059.55 622.524 1059 621.112 1059 619.64V604.456C1059 602.743 1059.64 601.101 1060.78 599.891C1061.93 598.68 1063.47 598 1065.09 598H1071.81C1072.88 598 1073.92 598.453 1074.68 599.261C1075.44 600.068 1075.87 601.162 1075.87 602.304V613.4ZM1101.75 672.512C1103.05 672.512 1104.11 671.394 1104.11 670.016C1104.11 665.146 1104.11 654.851 1104.11 654.851C1104.11 649.517 1100.03 645.193 1095 645.193C1089.97 645.193 1085.89 649.517 1085.89 654.851V670.016C1085.89 671.394 1086.95 672.512 1088.25 672.512H1101.75Z" fill="#7E8895"/>
  <path opacity="0.03" fill-rule="evenodd" clip-rule="evenodd" d="M391.216 649.995H406.267V635.588C406.267 634.106 406.856 632.685 407.904 631.637C408.952 630.589 410.373 630 411.855 630H423.895C425.377 630 426.799 630.589 427.846 631.637C428.894 632.685 429.483 634.106 429.483 635.588V649.995H443.896V635.588C443.896 634.106 444.485 632.685 445.533 631.637C446.581 630.589 448.002 630 449.484 630H458.731C460.954 630 463.086 630.883 464.657 632.455C466.229 634.027 467.112 636.159 467.112 638.382V658.096C467.112 660.007 466.353 661.84 465.002 663.191C463.651 664.542 461.818 665.301 459.907 665.301H457.564C454.447 665.301 451.92 667.828 451.92 670.945C451.92 683.103 451.92 711.648 451.92 723.806C451.92 726.923 454.447 729.45 457.564 729.45C458.259 729.45 458.731 729.45 458.731 729.45C460.954 729.45 463.086 730.333 464.657 731.905C466.229 733.476 467.112 735.608 467.112 737.831V742.56C467.112 744.042 466.524 745.463 465.476 746.511C464.428 747.559 463.007 748.148 461.525 748.148H373.588C372.106 748.148 370.685 747.559 369.637 746.511C368.589 745.463 368 744.042 368 742.56V737.831C368 735.608 368.883 733.476 370.455 731.905C372.027 730.333 374.159 729.45 376.382 729.45H378.312C381.429 729.45 383.955 726.923 383.955 723.806C383.955 711.648 383.955 683.103 383.955 670.945C383.955 667.828 381.429 665.301 378.312 665.301C376.62 665.301 375.205 665.301 375.205 665.301C373.294 665.301 371.461 664.542 370.11 663.191C368.759 661.84 368 660.007 368 658.096V638.382C368 636.159 368.883 634.027 370.455 632.455C372.027 630.883 374.159 630 376.382 630H385.628C387.11 630 388.531 630.589 389.579 631.637C390.627 632.685 391.216 634.106 391.216 635.588V649.995ZM426.854 726.741C428.644 726.741 430.095 725.29 430.095 723.5C430.095 717.178 430.095 703.811 430.095 703.811C430.095 696.886 424.481 691.272 417.556 691.272C410.631 691.272 405.017 696.886 405.017 703.811V723.5C405.017 725.29 406.468 726.741 408.258 726.741H426.854Z" fill="#7E8895"/>
  <g opacity="0.03">
  <path fill-rule="evenodd" clip-rule="evenodd" d="M115.544 393.345C110.615 388.938 104.138 386.669 97.5365 387.038C90.9351 387.407 84.7507 390.383 80.3435 395.311C75.9364 400.24 73.6677 406.717 74.0364 413.319C74.4051 419.92 77.381 426.104 82.3096 430.511C87.2381 434.919 93.7155 437.187 100.317 436.819C106.918 436.45 113.103 433.474 117.51 428.545C121.917 423.617 124.186 417.14 123.817 410.538C123.448 403.937 120.472 397.752 115.544 393.345ZM92.0353 400.188C90.3484 400.188 88.9808 401.556 88.9808 403.243V420.614C88.9808 422.301 90.3484 423.669 92.0353 423.669C93.7223 423.669 95.0899 422.301 95.0899 420.614V415.007H102.763V420.614C102.763 422.301 104.131 423.669 105.818 423.669C107.505 423.669 108.872 422.301 108.872 420.614V403.243C108.872 401.556 107.505 400.188 105.818 400.188C104.131 400.188 102.763 401.556 102.763 403.243V408.85H95.0899V403.243C95.0899 401.556 93.7223 400.188 92.0353 400.188Z" fill="#7E8895"/>
  <path fill-rule="evenodd" clip-rule="evenodd" d="M98.927 450.854C120.426 450.854 137.854 433.426 137.854 411.927C137.854 390.428 120.426 373 98.927 373C77.4282 373 60 390.428 60 411.927C60 433.426 77.4282 450.854 98.927 450.854ZM97.2079 381.156C105.369 380.7 113.377 383.505 119.471 388.954C125.564 394.402 129.243 402.048 129.699 410.21C130.155 418.371 127.35 426.379 121.901 432.472C116.453 438.566 108.807 442.245 100.645 442.701C92.484 443.157 84.4758 440.352 78.3825 434.903C72.2893 429.454 68.61 421.808 68.1542 413.647C67.6984 405.486 70.5033 397.478 75.9519 391.384C81.4006 385.291 89.0466 381.612 97.2079 381.156Z" fill="#7E8895"/>
  </g>
  <g opacity="0.03">
  <path fill-rule="evenodd" clip-rule="evenodd" d="M530.544 833.345C525.615 828.938 519.138 826.669 512.536 827.038C505.935 827.407 499.751 830.383 495.344 835.311C490.936 840.24 488.668 846.717 489.036 853.319C489.405 859.92 492.381 866.104 497.31 870.511C502.238 874.919 508.715 877.187 515.317 876.819C521.918 876.45 528.103 873.474 532.51 868.545C536.917 863.617 539.186 857.14 538.817 850.538C538.448 843.937 535.472 837.752 530.544 833.345ZM507.035 840.188C505.348 840.188 503.981 841.556 503.981 843.243V860.614C503.981 862.301 505.348 863.669 507.035 863.669C508.722 863.669 510.09 862.301 510.09 860.614V855.007H517.763V860.614C517.763 862.301 519.131 863.669 520.818 863.669C522.505 863.669 523.872 862.301 523.872 860.614V843.243C523.872 841.556 522.505 840.188 520.818 840.188C519.131 840.188 517.763 841.556 517.763 843.243V848.85H510.09V843.243C510.09 841.556 508.722 840.188 507.035 840.188Z" fill="#7E8895"/>
  <path fill-rule="evenodd" clip-rule="evenodd" d="M513.927 890.854C535.426 890.854 552.854 873.426 552.854 851.927C552.854 830.428 535.426 813 513.927 813C492.428 813 475 830.428 475 851.927C475 873.426 492.428 890.854 513.927 890.854ZM512.208 821.156C520.369 820.7 528.377 823.505 534.471 828.954C540.564 834.402 544.243 842.048 544.699 850.21C545.155 858.371 542.35 866.379 536.901 872.472C531.453 878.566 523.807 882.245 515.645 882.701C507.484 883.157 499.476 880.352 493.383 874.903C487.289 869.454 483.61 861.808 483.154 853.647C482.698 845.486 485.503 837.478 490.952 831.384C496.401 825.291 504.047 821.612 512.208 821.156Z" fill="#7E8895"/>
  </g>
  <g opacity="0.03">
  <path fill-rule="evenodd" clip-rule="evenodd" d="M345.544 503.345C340.615 498.938 334.138 496.669 327.536 497.038C320.935 497.407 314.751 500.383 310.344 505.311C305.936 510.24 303.668 516.717 304.036 523.319C304.405 529.92 307.381 536.104 312.31 540.511C317.238 544.919 323.715 547.187 330.317 546.819C336.918 546.45 343.103 543.474 347.51 538.545C351.917 533.617 354.186 527.14 353.817 520.538C353.448 513.937 350.472 507.752 345.544 503.345ZM322.035 510.188C320.348 510.188 318.981 511.556 318.981 513.243V530.614C318.981 532.301 320.348 533.669 322.035 533.669C323.722 533.669 325.09 532.301 325.09 530.614V525.007H332.763V530.614C332.763 532.301 334.131 533.669 335.818 533.669C337.505 533.669 338.872 532.301 338.872 530.614V513.243C338.872 511.556 337.505 510.188 335.818 510.188C334.131 510.188 332.763 511.556 332.763 513.243V518.85H325.09V513.243C325.09 511.556 323.722 510.188 322.035 510.188Z" fill="#7E8895"/>
  <path fill-rule="evenodd" clip-rule="evenodd" d="M328.927 560.854C350.426 560.854 367.854 543.426 367.854 521.927C367.854 500.428 350.426 483 328.927 483C307.428 483 290 500.428 290 521.927C290 543.426 307.428 560.854 328.927 560.854ZM327.208 491.156C335.369 490.7 343.377 493.505 349.471 498.954C355.564 504.402 359.243 512.048 359.699 520.21C360.155 528.371 357.35 536.379 351.901 542.472C346.453 548.566 338.807 552.245 330.645 552.701C322.484 553.157 314.476 550.352 308.383 544.903C302.289 539.454 298.61 531.808 298.154 523.647C297.698 515.486 300.503 507.478 305.952 501.384C311.401 495.291 319.047 491.612 327.208 491.156Z" fill="#7E8895"/>
  </g>
  <g opacity="0.03">
  <path fill-rule="evenodd" clip-rule="evenodd" d="M820.544 210.345C815.615 205.938 809.138 203.669 802.536 204.038C795.935 204.407 789.751 207.383 785.344 212.311C780.936 217.24 778.668 223.717 779.036 230.319C779.405 236.92 782.381 243.104 787.31 247.511C792.238 251.919 798.715 254.187 805.317 253.819C811.918 253.45 818.103 250.474 822.51 245.545C826.917 240.617 829.186 234.14 828.817 227.538C828.448 220.937 825.472 214.752 820.544 210.345ZM797.035 217.188C795.348 217.188 793.981 218.556 793.981 220.243V237.614C793.981 239.301 795.348 240.669 797.035 240.669C798.722 240.669 800.09 239.301 800.09 237.614V232.007H807.763V237.614C807.763 239.301 809.131 240.669 810.818 240.669C812.505 240.669 813.872 239.301 813.872 237.614V220.243C813.872 218.556 812.505 217.188 810.818 217.188C809.131 217.188 807.763 218.556 807.763 220.243V225.85H800.09V220.243C800.09 218.556 798.722 217.188 797.035 217.188Z" fill="#7E8895"/>
  <path fill-rule="evenodd" clip-rule="evenodd" d="M803.927 267.854C825.426 267.854 842.854 250.426 842.854 228.927C842.854 207.428 825.426 190 803.927 190C782.428 190 765 207.428 765 228.927C765 250.426 782.428 267.854 803.927 267.854ZM802.208 198.156C810.369 197.7 818.377 200.505 824.471 205.954C830.564 211.402 834.243 219.048 834.699 227.21C835.155 235.371 832.35 243.379 826.901 249.472C821.453 255.566 813.807 259.245 805.645 259.701C797.484 260.157 789.476 257.352 783.383 251.903C777.289 246.454 773.61 238.808 773.154 230.647C772.698 222.486 775.503 214.478 780.952 208.384C786.401 202.291 794.047 198.612 802.208 198.156Z" fill="#7E8895"/>
  </g>
  <g opacity="0.03">
  <path fill-rule="evenodd" clip-rule="evenodd" d="M435.544 210.345C430.615 205.938 424.138 203.669 417.536 204.038C410.935 204.407 404.751 207.383 400.344 212.311C395.936 217.24 393.668 223.717 394.036 230.319C394.405 236.92 397.381 243.104 402.31 247.511C407.238 251.919 413.715 254.187 420.317 253.819C426.918 253.45 433.103 250.474 437.51 245.545C441.917 240.617 444.186 234.14 443.817 227.538C443.448 220.937 440.472 214.752 435.544 210.345ZM412.035 217.188C410.348 217.188 408.981 218.556 408.981 220.243V237.614C408.981 239.301 410.348 240.669 412.035 240.669C413.722 240.669 415.09 239.301 415.09 237.614V232.007H422.763V237.614C422.763 239.301 424.131 240.669 425.818 240.669C427.505 240.669 428.872 239.301 428.872 237.614V220.243C428.872 218.556 427.505 217.188 425.818 217.188C424.131 217.188 422.763 218.556 422.763 220.243V225.85H415.09V220.243C415.09 218.556 413.722 217.188 412.035 217.188Z" fill="#7E8895"/>
  <path fill-rule="evenodd" clip-rule="evenodd" d="M418.927 267.854C440.426 267.854 457.854 250.426 457.854 228.927C457.854 207.428 440.426 190 418.927 190C397.428 190 380 207.428 380 228.927C380 250.426 397.428 267.854 418.927 267.854ZM417.208 198.156C425.369 197.7 433.377 200.505 439.471 205.954C445.564 211.402 449.243 219.048 449.699 227.21C450.155 235.371 447.35 243.379 441.901 249.472C436.453 255.566 428.807 259.245 420.645 259.701C412.484 260.157 404.476 257.352 398.383 251.903C392.289 246.454 388.61 238.808 388.154 230.647C387.698 222.486 390.503 214.478 395.952 208.384C401.401 202.291 409.047 198.612 417.208 198.156Z" fill="#7E8895"/>
  </g>
  <g opacity="0.03">
  <path fill-rule="evenodd" clip-rule="evenodd" d="M1146.76 48.7877C1141.83 44.3806 1135.35 42.1118 1128.75 42.4805C1122.15 42.8492 1115.96 45.8251 1111.56 50.7537C1107.15 55.6822 1104.88 62.1596 1105.25 68.7609C1105.62 75.3622 1108.59 81.5467 1113.52 85.9538C1118.45 90.361 1124.93 92.6297 1131.53 92.261C1138.13 91.8923 1144.32 88.9164 1148.72 83.9878C1153.13 79.0593 1155.4 72.5819 1155.03 65.9806C1154.66 59.3793 1151.69 53.1948 1146.76 48.7877ZM1123.25 55.6303C1121.56 55.6303 1120.19 56.9979 1120.19 58.6849V76.0564C1120.19 77.7433 1121.56 79.1109 1123.25 79.1109C1124.94 79.1109 1126.3 77.7433 1126.3 76.0564V70.4489H1133.98V76.0564C1133.98 77.7433 1135.34 79.1109 1137.03 79.1109C1138.72 79.1109 1140.09 77.7433 1140.09 76.0564V58.6849C1140.09 56.9979 1138.72 55.6303 1137.03 55.6303C1135.34 55.6303 1133.98 56.9979 1133.98 58.6849V64.2922H1126.3V58.6849C1126.3 56.9979 1124.94 55.6303 1123.25 55.6303Z" fill="#7E8895"/>
  <path fill-rule="evenodd" clip-rule="evenodd" d="M1130.14 106.296C1151.64 106.296 1169.07 88.8682 1169.07 67.3694C1169.07 45.8706 1151.64 28.4424 1130.14 28.4424C1108.64 28.4424 1091.21 45.8706 1091.21 67.3694C1091.21 88.8682 1108.64 106.296 1130.14 106.296ZM1128.42 36.5983C1136.58 36.1425 1144.59 38.9474 1150.68 44.396C1156.78 49.8447 1160.46 57.4907 1160.91 65.652C1161.37 73.8134 1158.56 81.8216 1153.12 87.9148C1147.67 94.0081 1140.02 97.6874 1131.86 98.1432C1123.7 98.599 1115.69 95.7941 1109.6 90.3455C1103.5 84.8968 1099.82 77.2508 1099.37 69.0895C1098.91 60.9281 1101.72 52.9199 1107.17 46.8267C1112.61 40.7334 1120.26 37.0542 1128.42 36.5983Z" fill="#7E8895"/>
  </g>
  <g opacity="0.03">
  <path fill-rule="evenodd" clip-rule="evenodd" d="M966.544 890.345C961.615 885.938 955.138 883.669 948.536 884.038C941.935 884.407 935.751 887.383 931.344 892.311C926.936 897.24 924.668 903.717 925.036 910.319C925.405 916.92 928.381 923.104 933.31 927.511C938.238 931.919 944.715 934.187 951.317 933.819C957.918 933.45 964.103 930.474 968.51 925.545C972.917 920.617 975.186 914.14 974.817 907.538C974.448 900.937 971.472 894.752 966.544 890.345ZM943.035 897.188C941.348 897.188 939.981 898.556 939.981 900.243V917.614C939.981 919.301 941.348 920.669 943.035 920.669C944.722 920.669 946.09 919.301 946.09 917.614V912.007H953.763V917.614C953.763 919.301 955.131 920.669 956.818 920.669C958.505 920.669 959.872 919.301 959.872 917.614V900.243C959.872 898.556 958.505 897.188 956.818 897.188C955.131 897.188 953.763 898.556 953.763 900.243V905.85H946.09V900.243C946.09 898.556 944.722 897.188 943.035 897.188Z" fill="#7E8895"/>
  <path fill-rule="evenodd" clip-rule="evenodd" d="M949.927 947.854C971.426 947.854 988.854 930.426 988.854 908.927C988.854 887.428 971.426 870 949.927 870C928.428 870 911 887.428 911 908.927C911 930.426 928.428 947.854 949.927 947.854ZM948.208 878.156C956.369 877.7 964.377 880.505 970.471 885.954C976.564 891.402 980.243 899.048 980.699 907.21C981.155 915.371 978.35 923.379 972.901 929.472C967.453 935.566 959.807 939.245 951.645 939.701C943.484 940.157 935.476 937.352 929.383 931.903C923.289 926.454 919.61 918.808 919.154 910.647C918.698 902.486 921.503 894.478 926.952 888.384C932.401 882.291 940.047 878.612 948.208 878.156Z" fill="#7E8895"/>
  </g>
  </svg>
  